<svg width="1920" height="1080" viewBox="0 0 1920 1080" fill="none" xmlns="http://www.w3.org/2000/svg">
<rect width="1920" height="1080" fill="#043434"/>
<rect width="960" height="1080" transform="translate(960)" fill="#75F0A8"/>
<path d="M1382.14 522.496H1361.47V533.533H1380.3V548.073H1361.47V574H1344.3V507.956H1382.14V522.496ZM1403.18 551.401C1403.18 552.861 1403.44 554.234 1403.97 555.518C1404.49 556.744 1405.19 557.825 1406.07 558.759C1407 559.693 1408.08 560.423 1409.31 560.949C1410.59 561.474 1411.97 561.737 1413.43 561.737C1414.83 561.737 1416.14 561.474 1417.37 560.949C1418.65 560.423 1419.73 559.693 1420.61 558.759C1421.54 557.825 1422.27 556.744 1422.8 555.518C1423.38 554.292 1423.67 552.978 1423.67 551.577C1423.67 550.175 1423.38 548.861 1422.8 547.635C1422.27 546.35 1421.54 545.241 1420.61 544.307C1419.73 543.372 1418.65 542.642 1417.37 542.117C1416.14 541.591 1414.83 541.328 1413.43 541.328C1411.97 541.328 1410.59 541.591 1409.31 542.117C1408.08 542.642 1407 543.372 1406.07 544.307C1405.19 545.241 1404.49 546.321 1403.97 547.547C1403.44 548.715 1403.18 550 1403.18 551.401ZM1423.15 529.066H1439.09V574H1423.15V569.007C1419.76 573.27 1415.18 575.401 1409.4 575.401C1406.13 575.401 1403.12 574.818 1400.38 573.65C1397.63 572.423 1395.24 570.73 1393.19 568.569C1391.15 566.409 1389.54 563.869 1388.38 560.949C1387.27 558.029 1386.71 554.847 1386.71 551.401C1386.71 548.19 1387.27 545.153 1388.38 542.292C1389.48 539.372 1391.03 536.832 1393.02 534.671C1395 532.511 1397.37 530.817 1400.11 529.591C1402.86 528.306 1405.89 527.664 1409.22 527.664C1414.83 527.664 1419.47 529.62 1423.15 533.533V529.066ZM1448.05 529.066H1463.91V536.423C1465.6 533.737 1467.68 531.693 1470.13 530.292C1472.58 528.832 1475.44 528.102 1478.71 528.102C1479.12 528.102 1479.56 528.102 1480.03 528.102C1480.55 528.102 1481.14 528.16 1481.78 528.277V543.431C1479.68 542.379 1477.4 541.854 1474.95 541.854C1471.27 541.854 1468.49 542.963 1466.62 545.182C1464.81 547.343 1463.91 550.525 1463.91 554.73V574H1448.05V529.066ZM1502.35 551.401C1502.35 552.861 1502.61 554.234 1503.13 555.518C1503.66 556.744 1504.36 557.825 1505.24 558.759C1506.17 559.693 1507.25 560.423 1508.48 560.949C1509.76 561.474 1511.13 561.737 1512.59 561.737C1514 561.737 1515.31 561.474 1516.54 560.949C1517.82 560.423 1518.9 559.693 1519.78 558.759C1520.71 557.825 1521.44 556.744 1521.97 555.518C1522.55 554.234 1522.84 552.89 1522.84 551.489C1522.84 550.088 1522.55 548.774 1521.97 547.547C1521.44 546.321 1520.71 545.241 1519.78 544.307C1518.9 543.372 1517.82 542.642 1516.54 542.117C1515.31 541.591 1514 541.328 1512.59 541.328C1511.19 541.328 1509.85 541.591 1508.57 542.117C1507.34 542.642 1506.26 543.372 1505.32 544.307C1504.45 545.241 1503.72 546.321 1503.13 547.547C1502.61 548.715 1502.35 550 1502.35 551.401ZM1522.32 596.423V569.62C1518.64 573.474 1514 575.401 1508.39 575.401C1505.18 575.401 1502.2 574.788 1499.46 573.562C1496.71 572.336 1494.32 570.642 1492.27 568.482C1490.29 566.321 1488.71 563.81 1487.54 560.949C1486.43 558.029 1485.88 554.934 1485.88 551.664C1485.88 548.277 1486.46 545.124 1487.63 542.204C1488.8 539.285 1490.4 536.744 1492.45 534.584C1494.49 532.423 1496.89 530.73 1499.63 529.504C1502.38 528.277 1505.35 527.664 1508.57 527.664C1514.35 527.664 1518.93 529.796 1522.32 534.058V529.066H1538.26V596.423H1522.32Z" fill="#063B37"/>
<path d="M422.143 522.496H401.471V533.533H420.303V548.073H401.471V574H384.303V507.956H422.143V522.496ZM443.178 551.401C443.178 552.861 443.441 554.234 443.967 555.518C444.492 556.744 445.193 557.825 446.069 558.759C447.003 559.693 448.084 560.423 449.31 560.949C450.594 561.474 451.967 561.737 453.427 561.737C454.828 561.737 456.142 561.474 457.368 560.949C458.653 560.423 459.733 559.693 460.609 558.759C461.543 557.825 462.273 556.744 462.799 555.518C463.383 554.292 463.675 552.978 463.675 551.577C463.675 550.175 463.383 548.861 462.799 547.635C462.273 546.35 461.543 545.241 460.609 544.307C459.733 543.372 458.653 542.642 457.368 542.117C456.142 541.591 454.828 541.328 453.427 541.328C451.967 541.328 450.594 541.591 449.31 542.117C448.084 542.642 447.003 543.372 446.069 544.307C445.193 545.241 444.492 546.321 443.967 547.547C443.441 548.715 443.178 550 443.178 551.401ZM463.149 529.066H479.091V574H463.149V569.007C459.762 573.27 455.178 575.401 449.397 575.401C446.127 575.401 443.12 574.818 440.375 573.65C437.631 572.423 435.237 570.73 433.193 568.569C431.149 566.409 429.543 563.869 428.375 560.949C427.266 558.029 426.711 554.847 426.711 551.401C426.711 548.19 427.266 545.153 428.375 542.292C429.485 539.372 431.032 536.832 433.018 534.671C435.003 532.511 437.368 530.817 440.113 529.591C442.857 528.306 445.894 527.664 449.222 527.664C454.828 527.664 459.47 529.62 463.149 533.533V529.066ZM488.055 529.066H503.909V536.423C505.602 533.737 507.675 531.693 510.128 530.292C512.58 528.832 515.442 528.102 518.712 528.102C519.121 528.102 519.559 528.102 520.026 528.102C520.551 528.102 521.135 528.16 521.778 528.277V543.431C519.675 542.379 517.398 541.854 514.945 541.854C511.267 541.854 508.493 542.963 506.624 545.182C504.814 547.343 503.909 550.525 503.909 554.73V574H488.055V529.066ZM542.346 551.401C542.346 552.861 542.609 554.234 543.134 555.518C543.66 556.744 544.361 557.825 545.237 558.759C546.171 559.693 547.251 560.423 548.477 560.949C549.762 561.474 551.134 561.737 552.594 561.737C553.996 561.737 555.31 561.474 556.536 560.949C557.821 560.423 558.901 559.693 559.777 558.759C560.711 557.825 561.441 556.744 561.967 555.518C562.551 554.234 562.842 552.89 562.842 551.489C562.842 550.088 562.551 548.774 561.967 547.547C561.441 546.321 560.711 545.241 559.777 544.307C558.901 543.372 557.821 542.642 556.536 542.117C555.31 541.591 553.996 541.328 552.594 541.328C551.193 541.328 549.85 541.591 548.565 542.117C547.339 542.642 546.258 543.372 545.324 544.307C544.448 545.241 543.718 546.321 543.134 547.547C542.609 548.715 542.346 550 542.346 551.401ZM562.317 596.423V569.62C558.638 573.474 553.996 575.401 548.39 575.401C545.178 575.401 542.2 574.788 539.456 573.562C536.711 572.336 534.317 570.642 532.273 568.482C530.288 566.321 528.711 563.81 527.543 560.949C526.434 558.029 525.879 554.934 525.879 551.664C525.879 548.277 526.463 545.124 527.631 542.204C528.799 539.285 530.404 536.744 532.448 534.584C534.492 532.423 536.886 530.73 539.631 529.504C542.375 528.277 545.353 527.664 548.565 527.664C554.346 527.664 558.93 529.796 562.317 534.058V529.066H578.259V596.423H562.317Z" fill="#75F0A8"/>
</svg>
